<svg xmlns="http://www.w3.org/2000/svg" xmlns:xlink="http://www.w3.org/1999/xlink" width="500" zoomAndPan="magnify" viewBox="0 0 375 374.999991" height="500" preserveAspectRatio="xMidYMid meet" version="1.0"><defs><g/><clipPath id="23987a9e74"><path d="M 221.261719 112.679688 L 296.261719 112.679688 L 296.261719 187.679688 L 221.261719 187.679688 Z M 221.261719 112.679688 " clip-rule="nonzero"/></clipPath><clipPath id="f68c03765e"><path d="M 159 91.785156 L 192 91.785156 L 192 161 L 159 161 Z M 159 91.785156 " clip-rule="nonzero"/></clipPath><clipPath id="7506fd5c34"><path d="M 113.71875 153 L 144 153 L 144 184 L 113.71875 184 Z M 113.71875 153 " clip-rule="nonzero"/></clipPath><clipPath id="3570f5131d"><path d="M 183 91.785156 L 216 91.785156 L 216 161 L 183 161 Z M 183 91.785156 " clip-rule="nonzero"/></clipPath><clipPath id="2df2bf1051"><path d="M 231 153 L 261.46875 153 L 261.46875 184 L 231 184 Z M 231 153 " clip-rule="nonzero"/></clipPath></defs><rect x="-37.5" width="450" fill="#ffffff" y="-37.499999" height="449.999989" fill-opacity="1"/><rect x="-37.5" width="450" fill="#ffffff" y="-37.499999" height="449.999989" fill-opacity="1"/><rect x="-37.5" width="450" fill="#ffde59" y="-37.499999" height="449.999989" fill-opacity="1"/><path fill="#000000" d="M 119.527344 141.046875 C 116.878906 139.695312 113.769531 139.316406 110.867188 139.9375 C 107.402344 140.671875 104.300781 142.882812 102.464844 145.898438 C 100.894531 148.425781 100.253906 151.507812 100.660156 154.457031 C 101.109375 158.058594 103.191406 161.40625 106.183594 163.460938 C 109.082031 165.484375 112.816406 166.238281 116.273438 165.511719 C 119.761719 164.8125 122.90625 162.613281 124.765625 159.585938 C 126.746094 156.433594 127.265625 152.414062 126.148438 148.863281 C 125.125 145.5 122.667969 142.617188 119.527344 141.046875 Z M 118.996094 158.417969 C 116.964844 160.34375 113.84375 161.097656 111.1875 160.144531 C 108.382812 159.273438 106.261719 156.6875 105.855469 153.800781 C 105.238281 149.933594 107.984375 145.9375 111.808594 145.101562 C 115.601562 144.085938 119.867188 146.472656 121.050781 150.195312 C 122.109375 153.019531 121.195312 156.386719 118.996094 158.417969 Z M 118.996094 158.417969 " fill-opacity="1" fill-rule="nonzero"/><path fill="#000000" d="M 149.496094 136.617188 C 145.917969 128.667969 139.589844 121.984375 131.851562 117.945312 C 124.675781 114.15625 116.304688 112.695312 108.261719 113.796875 C 102.75 114.558594 97.390625 116.476562 92.683594 119.445312 C 84.773438 124.363281 78.742188 132.195312 76.03125 141.09375 C 73.695312 148.554688 73.703125 156.722656 76.019531 164.191406 C 78.773438 173.234375 84.953125 181.164062 93.015625 186.117188 C 99.445312 190.109375 107.058594 192.171875 114.628906 191.980469 C 123.28125 191.789062 131.839844 188.644531 138.53125 183.160156 C 145.179688 177.777344 149.96875 170.167969 151.921875 161.847656 C 153.945312 153.476562 153.070312 144.453125 149.496094 136.617188 Z M 126.378906 161.890625 C 123.621094 165.734375 119.050781 168.222656 114.308594 168.375 C 109.65625 168.613281 104.96875 166.628906 101.898438 163.136719 C 98.597656 159.503906 97.21875 154.269531 98.253906 149.480469 C 99.453125 143.480469 104.492188 138.492188 110.507812 137.339844 C 114.359375 136.566406 118.484375 137.273438 121.824219 139.339844 C 125.273438 141.4375 127.863281 144.902344 128.851562 148.816406 C 130.015625 153.253906 129.097656 158.1875 126.378906 161.890625 Z M 126.378906 161.890625 " fill-opacity="1" fill-rule="nonzero"/><path fill="#000000" d="M 112.136719 147.71875 C 109.714844 148.386719 108.046875 150.976562 108.464844 153.457031 C 108.773438 156.195312 111.566406 158.308594 114.296875 157.886719 C 117.070312 157.601562 119.246094 154.8125 118.816406 152.054688 C 118.523438 148.96875 115.09375 146.722656 112.136719 147.71875 Z M 112.136719 147.71875 " fill-opacity="1" fill-rule="nonzero"/><g clip-path="url(#23987a9e74)"><path fill="#000000" d="M 258.765625 186.695312 C 238.597656 186.695312 222.246094 170.347656 222.246094 150.179688 C 222.25 130.011719 238.597656 113.664062 258.765625 113.664062 C 278.929688 113.664062 295.28125 130.011719 295.28125 150.179688 C 295.28125 170.347656 278.929688 186.695312 258.765625 186.695312 Z M 258.765625 112.679688 C 238.054688 112.679688 221.261719 129.46875 221.261719 150.179688 C 221.261719 170.890625 238.054688 187.679688 258.765625 187.679688 C 279.472656 187.679688 296.261719 170.890625 296.261719 150.179688 C 296.261719 129.46875 279.472656 112.679688 258.765625 112.679688 " fill-opacity="1" fill-rule="nonzero"/></g><path fill="#000000" d="M 273.167969 137.101562 L 273.167969 160.886719 L 273.164062 160.886719 C 273.167969 160.960938 273.167969 161.03125 273.167969 161.105469 C 273.167969 164.328125 269.867188 166.941406 265.796875 166.941406 C 261.722656 166.941406 258.421875 164.328125 258.421875 161.105469 C 258.421875 157.878906 261.722656 155.265625 265.796875 155.265625 C 266.707031 155.265625 267.578125 155.398438 268.386719 155.640625 L 268.386719 139.109375 L 252.441406 145.792969 L 252.441406 166.46875 L 252.433594 166.46875 C 252.4375 166.542969 252.441406 166.613281 252.441406 166.683594 C 252.441406 169.910156 249.140625 172.523438 245.066406 172.523438 C 240.992188 172.523438 237.691406 169.910156 237.691406 166.683594 C 237.691406 163.460938 240.992188 160.847656 245.066406 160.847656 C 245.980469 160.847656 246.851562 160.980469 247.65625 161.21875 L 247.65625 147.796875 L 247.65625 147.800781 L 247.65625 140.546875 C 247.65625 140.546875 247.660156 140.386719 247.65625 140.304688 L 247.65625 140.148438 C 247.691406 138.867188 248.480469 137.777344 249.597656 137.304688 L 249.746094 137.246094 C 249.785156 137.230469 249.820312 137.21875 249.859375 137.207031 L 249.859375 137.199219 L 250.085938 137.113281 L 269.011719 129.609375 C 269.359375 129.472656 269.738281 129.394531 270.132812 129.394531 C 271.753906 129.394531 273.078125 130.660156 273.167969 132.253906 Z M 258.765625 114.441406 C 239.027344 114.441406 223.027344 130.441406 223.027344 150.179688 C 223.027344 169.917969 239.027344 185.917969 258.765625 185.917969 C 278.5 185.917969 294.5 169.917969 294.5 150.179688 C 294.5 130.441406 278.5 114.441406 258.765625 114.441406 " fill-opacity="1" fill-rule="nonzero"/><path fill="#5271ff" d="M 181.910156 145.875 C 181.910156 146.140625 181.882812 146.402344 181.832031 146.660156 C 181.78125 146.921875 181.703125 147.171875 181.605469 147.417969 C 181.503906 147.660156 181.378906 147.894531 181.230469 148.113281 C 181.085938 148.332031 180.917969 148.539062 180.730469 148.722656 C 180.542969 148.910156 180.339844 149.078125 180.121094 149.226562 C 179.902344 149.371094 179.667969 149.496094 179.425781 149.597656 C 179.179688 149.699219 178.929688 149.777344 178.667969 149.828125 C 178.410156 149.878906 178.148438 149.90625 177.882812 149.90625 C 177.617188 149.90625 177.355469 149.878906 177.097656 149.828125 C 176.839844 149.777344 176.585938 149.699219 176.339844 149.597656 C 176.097656 149.496094 175.867188 149.371094 175.644531 149.226562 C 175.425781 149.078125 175.222656 148.910156 175.035156 148.722656 C 174.847656 148.539062 174.679688 148.332031 174.535156 148.113281 C 174.386719 147.894531 174.261719 147.660156 174.164062 147.417969 C 174.0625 147.171875 173.984375 146.921875 173.933594 146.660156 C 173.882812 146.402344 173.855469 146.140625 173.855469 145.875 C 173.855469 145.609375 173.882812 145.347656 173.933594 145.089844 C 173.984375 144.828125 174.0625 144.578125 174.164062 144.332031 C 174.261719 144.085938 174.386719 143.855469 174.535156 143.636719 C 174.679688 143.414062 174.847656 143.210938 175.035156 143.023438 C 175.222656 142.835938 175.425781 142.671875 175.644531 142.523438 C 175.867188 142.375 176.097656 142.25 176.339844 142.152344 C 176.585938 142.050781 176.839844 141.972656 177.097656 141.921875 C 177.355469 141.871094 177.617188 141.84375 177.882812 141.84375 C 178.148438 141.84375 178.410156 141.871094 178.667969 141.921875 C 178.929688 141.972656 179.179688 142.050781 179.425781 142.152344 C 179.667969 142.25 179.902344 142.375 180.121094 142.523438 C 180.339844 142.671875 180.542969 142.835938 180.730469 143.023438 C 180.917969 143.210938 181.085938 143.414062 181.230469 143.636719 C 181.378906 143.855469 181.503906 144.085938 181.605469 144.332031 C 181.703125 144.578125 181.78125 144.828125 181.832031 145.089844 C 181.882812 145.347656 181.910156 145.609375 181.910156 145.875 Z M 181.910156 145.875 " fill-opacity="1" fill-rule="nonzero"/><path fill="#5271ff" d="M 201.328125 145.875 C 201.328125 146.140625 201.304688 146.402344 201.25 146.660156 C 201.199219 146.921875 201.125 147.171875 201.023438 147.417969 C 200.921875 147.660156 200.796875 147.894531 200.648438 148.113281 C 200.503906 148.332031 200.335938 148.539062 200.148438 148.722656 C 199.960938 148.910156 199.757812 149.078125 199.539062 149.226562 C 199.320312 149.371094 199.085938 149.496094 198.84375 149.597656 C 198.597656 149.699219 198.347656 149.777344 198.085938 149.828125 C 197.828125 149.878906 197.566406 149.90625 197.300781 149.90625 C 197.039062 149.90625 196.773438 149.878906 196.515625 149.828125 C 196.257812 149.777344 196.003906 149.699219 195.761719 149.597656 C 195.515625 149.496094 195.285156 149.371094 195.0625 149.226562 C 194.84375 149.078125 194.640625 148.910156 194.453125 148.722656 C 194.265625 148.539062 194.101562 148.332031 193.953125 148.113281 C 193.804688 147.894531 193.683594 147.660156 193.582031 147.417969 C 193.480469 147.171875 193.402344 146.921875 193.351562 146.660156 C 193.300781 146.402344 193.273438 146.140625 193.273438 145.875 C 193.273438 145.609375 193.300781 145.347656 193.351562 145.089844 C 193.402344 144.828125 193.480469 144.578125 193.582031 144.332031 C 193.683594 144.085938 193.804688 143.855469 193.953125 143.636719 C 194.101562 143.414062 194.265625 143.210938 194.453125 143.023438 C 194.640625 142.835938 194.84375 142.671875 195.0625 142.523438 C 195.285156 142.375 195.515625 142.25 195.761719 142.152344 C 196.003906 142.050781 196.257812 141.972656 196.515625 141.921875 C 196.773438 141.871094 197.039062 141.84375 197.300781 141.84375 C 197.566406 141.84375 197.828125 141.871094 198.085938 141.921875 C 198.347656 141.972656 198.597656 142.050781 198.84375 142.152344 C 199.085938 142.25 199.320312 142.375 199.539062 142.523438 C 199.757812 142.671875 199.960938 142.835938 200.148438 143.023438 C 200.335938 143.210938 200.503906 143.414062 200.648438 143.636719 C 200.796875 143.855469 200.921875 144.085938 201.023438 144.332031 C 201.125 144.578125 201.199219 144.828125 201.25 145.089844 C 201.304688 145.347656 201.328125 145.609375 201.328125 145.875 Z M 201.328125 145.875 " fill-opacity="1" fill-rule="nonzero"/><g clip-path="url(#f68c03765e)"><path fill="#5271ff" d="M 187.59375 91.785156 C 189.578125 91.785156 191.1875 93.394531 191.1875 95.382812 C 191.1875 97.371094 189.578125 98.984375 187.59375 98.984375 C 181.773438 98.984375 176.484375 101.367188 172.644531 105.207031 C 168.808594 109.050781 166.425781 114.34375 166.425781 120.167969 C 166.425781 123.828125 167.332031 127.183594 168.242188 130.539062 C 170.359375 138.382812 172.480469 146.222656 166.03125 158.894531 C 165.132812 160.664062 162.96875 161.371094 161.199219 160.46875 C 159.429688 159.566406 158.726562 157.402344 159.625 155.632812 C 164.824219 145.421875 163.0625 138.90625 161.300781 132.394531 C 160.265625 128.570312 159.234375 124.75 159.234375 120.167969 C 159.234375 112.359375 162.421875 105.261719 167.5625 100.117188 C 172.699219 94.976562 179.789062 91.785156 187.59375 91.785156 Z M 187.59375 91.785156 " fill-opacity="1" fill-rule="nonzero"/></g><path fill="#5271ff" d="M 128.570312 160.863281 C 126.585938 160.863281 124.972656 159.25 124.972656 157.261719 C 124.972656 155.273438 126.585938 153.664062 128.570312 153.664062 L 162.828125 153.664062 C 164.816406 153.664062 166.425781 155.273438 166.425781 157.261719 C 166.425781 159.25 164.816406 160.863281 162.828125 160.863281 Z M 128.570312 160.863281 " fill-opacity="1" fill-rule="nonzero"/><g clip-path="url(#7506fd5c34)"><path fill="#5271ff" d="M 136.210938 168.5 C 136.210938 166.511719 137.824219 164.898438 139.808594 164.898438 C 141.792969 164.898438 143.40625 166.511719 143.40625 168.5 C 143.40625 172.597656 141.746094 176.308594 139.058594 178.996094 C 136.375 181.683594 132.667969 183.347656 128.570312 183.347656 C 124.476562 183.347656 120.765625 181.683594 118.082031 178.996094 C 115.398438 176.308594 113.738281 172.597656 113.738281 168.5 C 113.738281 164.398438 115.398438 160.6875 118.082031 158 C 120.765625 155.3125 124.476562 153.652344 128.570312 153.652344 C 130.558594 153.652344 132.167969 155.261719 132.167969 157.25 C 132.167969 159.238281 130.558594 160.851562 128.570312 160.851562 C 126.460938 160.851562 124.550781 161.707031 123.167969 163.089844 C 121.785156 164.472656 120.929688 166.386719 120.929688 168.5 C 120.929688 170.609375 121.785156 172.523438 123.167969 173.90625 C 124.550781 175.292969 126.460938 176.148438 128.570312 176.148438 C 130.679688 176.148438 132.59375 175.292969 133.972656 173.90625 C 135.355469 172.523438 136.210938 170.613281 136.210938 168.5 Z M 136.210938 168.5 " fill-opacity="1" fill-rule="nonzero"/></g><path fill="#5271ff" d="M 133.121094 191.238281 C 131.382812 192.195312 129.199219 191.558594 128.246094 189.820312 C 127.289062 188.078125 127.925781 185.894531 129.664062 184.941406 L 185.863281 154.113281 C 187.601562 153.160156 189.785156 153.792969 190.738281 155.535156 C 191.695312 157.273438 191.058594 159.457031 189.320312 160.414062 Z M 133.121094 191.238281 " fill-opacity="1" fill-rule="nonzero"/><path fill="#5271ff" d="M 143.617188 194.921875 C 142.8125 193.113281 143.621094 190.992188 145.429688 190.183594 C 147.238281 189.375 149.359375 190.1875 150.164062 192 C 151.839844 195.738281 151.84375 199.800781 150.496094 203.34375 C 149.148438 206.886719 146.441406 209.921875 142.695312 211.601562 L 142.6875 211.605469 C 138.949219 213.277344 134.894531 213.28125 131.359375 211.933594 C 127.820312 210.582031 124.789062 207.875 123.109375 204.125 L 123.105469 204.117188 C 121.433594 200.378906 121.429688 196.320312 122.777344 192.777344 C 124.125 189.234375 126.832031 186.203125 130.578125 184.523438 C 132.386719 183.714844 134.507812 184.527344 135.3125 186.335938 C 136.121094 188.144531 135.308594 190.265625 133.5 191.074219 C 131.582031 191.933594 130.191406 193.5 129.492188 195.335938 C 128.820312 197.101562 128.792969 199.109375 129.558594 200.972656 C 129.636719 201.117188 129.703125 201.269531 129.761719 201.421875 C 130.640625 203.226562 132.152344 204.539062 133.914062 205.210938 C 135.679688 205.882812 137.683594 205.910156 139.546875 205.148438 C 139.691406 205.070312 139.839844 205 139.996094 204.945312 C 141.800781 204.066406 143.109375 202.550781 143.78125 200.785156 C 144.480469 198.949219 144.480469 196.847656 143.617188 194.921875 Z M 143.617188 194.921875 " fill-opacity="1" fill-rule="nonzero"/><path fill="#5271ff" d="M 162.648438 187.320312 C 161.253906 188.726562 158.980469 188.730469 157.578125 187.335938 C 156.171875 185.9375 156.167969 183.664062 157.5625 182.257812 L 185.050781 154.734375 C 186.445312 153.328125 188.71875 153.320312 190.121094 154.71875 C 191.527344 156.117188 191.53125 158.390625 190.136719 159.792969 Z M 162.648438 187.320312 " fill-opacity="1" fill-rule="nonzero"/><path fill="#5271ff" d="M 173.449219 187.324219 C 172.042969 185.921875 172.042969 183.640625 173.449219 182.234375 C 174.851562 180.832031 177.128906 180.832031 178.535156 182.234375 C 181.429688 185.136719 182.878906 188.933594 182.878906 192.734375 C 182.878906 196.53125 181.429688 200.332031 178.535156 203.230469 C 175.636719 206.128906 171.839844 207.582031 168.042969 207.582031 C 164.25 207.582031 160.453125 206.128906 157.554688 203.230469 C 154.660156 200.332031 153.210938 196.53125 153.210938 192.734375 L 153.222656 192.734375 C 153.226562 188.925781 154.667969 185.125 157.554688 182.238281 C 158.960938 180.832031 161.238281 180.832031 162.640625 182.234375 C 164.046875 183.640625 164.046875 185.921875 162.640625 187.324219 C 161.140625 188.828125 160.390625 190.785156 160.390625 192.734375 L 160.402344 192.734375 C 160.402344 194.691406 161.148438 196.648438 162.640625 198.140625 C 164.132812 199.636719 166.089844 200.382812 168.042969 200.382812 C 170 200.382812 171.957031 199.636719 173.449219 198.140625 C 174.941406 196.648438 175.6875 194.691406 175.6875 192.734375 C 175.6875 190.777344 174.941406 188.820312 173.449219 187.324219 Z M 173.449219 187.324219 " fill-opacity="1" fill-rule="nonzero"/><path fill="#5271ff" d="M 162.828125 160.863281 C 160.84375 160.863281 159.234375 159.25 159.234375 157.265625 C 159.234375 155.277344 160.84375 153.664062 162.828125 153.664062 L 212.355469 153.664062 C 214.339844 153.664062 215.949219 155.277344 215.949219 157.265625 C 215.949219 159.25 214.339844 160.863281 212.355469 160.863281 Z M 162.828125 160.863281 " fill-opacity="1" fill-rule="nonzero"/><g clip-path="url(#3570f5131d)"><path fill="#5271ff" d="M 187.59375 98.984375 C 185.605469 98.984375 183.996094 97.371094 183.996094 95.382812 C 183.996094 93.394531 185.605469 91.785156 187.59375 91.785156 C 195.394531 91.785156 202.488281 94.976562 207.625 100.117188 C 212.761719 105.261719 215.953125 112.359375 215.953125 120.167969 C 215.953125 124.75 214.917969 128.570312 213.882812 132.394531 C 212.125 138.90625 210.363281 145.421875 215.558594 155.632812 C 216.457031 157.402344 215.753906 159.566406 213.984375 160.46875 C 212.214844 161.371094 210.050781 160.664062 209.152344 158.894531 C 202.703125 146.222656 204.824219 138.382812 206.945312 130.539062 C 207.851562 127.183594 208.757812 123.828125 208.757812 120.167969 C 208.757812 114.34375 206.378906 109.050781 202.539062 105.207031 C 198.703125 101.367188 193.410156 98.984375 187.59375 98.984375 Z M 187.59375 98.984375 " fill-opacity="1" fill-rule="nonzero"/></g><path fill="#5271ff" d="M 246.613281 153.664062 C 248.597656 153.664062 250.210938 155.273438 250.210938 157.261719 C 250.210938 159.25 248.597656 160.863281 246.613281 160.863281 L 212.355469 160.863281 C 210.367188 160.863281 208.757812 159.25 208.757812 157.261719 C 208.757812 155.273438 210.367188 153.664062 212.355469 153.664062 Z M 246.613281 153.664062 " fill-opacity="1" fill-rule="nonzero"/><g clip-path="url(#2df2bf1051)"><path fill="#5271ff" d="M 231.78125 168.5 C 231.78125 166.511719 233.390625 164.898438 235.375 164.898438 C 237.363281 164.898438 238.972656 166.511719 238.972656 168.5 C 238.972656 170.613281 239.828125 172.523438 241.210938 173.90625 C 242.59375 175.292969 244.503906 176.148438 246.613281 176.148438 C 248.722656 176.148438 250.636719 175.292969 252.015625 173.90625 C 253.398438 172.523438 254.253906 170.613281 254.253906 168.5 C 254.253906 166.386719 253.398438 164.472656 252.015625 163.089844 C 250.636719 161.707031 248.722656 160.851562 246.613281 160.851562 C 244.628906 160.851562 243.015625 159.238281 243.015625 157.25 C 243.015625 155.261719 244.628906 153.652344 246.613281 153.652344 C 250.710938 153.652344 254.417969 155.3125 257.101562 158 C 259.785156 160.6875 261.449219 164.398438 261.449219 168.5 C 261.449219 172.597656 259.785156 176.308594 257.101562 178.996094 C 254.417969 181.683594 250.710938 183.347656 246.613281 183.347656 C 242.519531 183.347656 238.808594 181.683594 236.125 178.996094 C 233.441406 176.308594 231.78125 172.597656 231.78125 168.5 Z M 231.78125 168.5 " fill-opacity="1" fill-rule="nonzero"/></g><path fill="#5271ff" d="M 245.519531 184.941406 C 247.257812 185.894531 247.894531 188.078125 246.941406 189.820312 C 245.984375 191.558594 243.804688 192.195312 242.066406 191.238281 L 185.863281 160.414062 C 184.125 159.457031 183.492188 157.273438 184.445312 155.535156 C 185.398438 153.792969 187.582031 153.160156 189.320312 154.113281 Z M 245.519531 184.941406 " fill-opacity="1" fill-rule="nonzero"/><path fill="#5271ff" d="M 225.019531 192 C 225.828125 190.1875 227.945312 189.375 229.753906 190.183594 C 231.5625 190.992188 232.371094 193.113281 231.566406 194.921875 C 230.703125 196.847656 230.703125 198.949219 231.402344 200.785156 C 232.074219 202.550781 233.386719 204.066406 235.1875 204.945312 C 235.34375 205 235.496094 205.070312 235.640625 205.148438 C 237.5 205.910156 239.507812 205.882812 241.269531 205.210938 C 243.03125 204.539062 244.546875 203.226562 245.425781 201.421875 C 245.480469 201.269531 245.546875 201.117188 245.625 200.972656 C 246.390625 199.109375 246.363281 197.101562 245.691406 195.335938 C 244.992188 193.5 243.601562 191.9375 241.683594 191.074219 C 239.875 190.269531 239.066406 188.144531 239.871094 186.335938 C 240.679688 184.527344 242.796875 183.714844 244.605469 184.523438 C 248.351562 186.203125 251.058594 189.234375 252.40625 192.777344 C 253.753906 196.320312 253.75 200.382812 252.078125 204.121094 L 252.074219 204.125 C 250.394531 207.875 247.367188 210.582031 243.824219 211.933594 C 240.289062 213.28125 236.234375 213.277344 232.5 211.605469 L 232.488281 211.601562 C 228.742188 209.921875 226.035156 206.886719 224.6875 203.34375 C 223.339844 199.800781 223.34375 195.738281 225.019531 192 Z M 225.019531 192 " fill-opacity="1" fill-rule="nonzero"/><path fill="#5271ff" d="M 217.621094 182.257812 C 219.015625 183.664062 219.011719 185.9375 217.605469 187.335938 C 216.203125 188.730469 213.929688 188.726562 212.535156 187.320312 L 185.050781 159.792969 C 183.652344 158.390625 183.660156 156.117188 185.0625 154.71875 C 186.46875 153.320312 188.738281 153.328125 190.136719 154.734375 Z M 217.621094 182.257812 " fill-opacity="1" fill-rule="nonzero"/><path fill="#5271ff" d="M 196.652344 182.234375 C 198.054688 180.832031 200.332031 180.832031 201.738281 182.234375 C 203.140625 183.640625 203.140625 185.921875 201.738281 187.324219 C 200.246094 188.820312 199.5 190.777344 199.5 192.734375 C 199.5 194.691406 200.246094 196.648438 201.738281 198.140625 C 203.226562 199.636719 205.183594 200.382812 207.140625 200.382812 C 209.097656 200.382812 211.050781 199.636719 212.542969 198.140625 C 214.035156 196.648438 214.78125 194.691406 214.78125 192.734375 C 214.78125 190.777344 214.035156 188.820312 212.542969 187.324219 C 211.140625 185.921875 211.140625 183.640625 212.542969 182.234375 C 213.949219 180.832031 216.226562 180.832031 217.628906 182.234375 C 220.527344 185.136719 221.972656 188.933594 221.972656 192.734375 C 221.972656 196.53125 220.527344 200.332031 217.628906 203.230469 C 214.730469 206.128906 210.9375 207.582031 207.140625 207.582031 C 203.34375 207.582031 199.546875 206.128906 196.652344 203.230469 C 193.753906 200.332031 192.304688 196.53125 192.304688 192.734375 C 192.304688 188.933594 193.753906 185.136719 196.652344 182.234375 Z M 196.652344 182.234375 " fill-opacity="1" fill-rule="nonzero"/><path fill="#5271ff" d="M 187.59375 130.488281 C 189.582031 130.488281 191.191406 132.097656 191.191406 134.085938 C 191.191406 136.074219 189.582031 137.6875 187.59375 137.6875 C 182.84375 137.6875 178.527344 135.742188 175.398438 132.613281 C 172.273438 129.484375 170.332031 125.164062 170.332031 120.410156 C 170.332031 117.675781 170.929688 115.460938 171.53125 113.246094 C 172.421875 109.949219 173.3125 106.652344 170.726562 101.566406 C 169.824219 99.796875 170.53125 97.632812 172.300781 96.730469 C 174.066406 95.832031 176.230469 96.535156 177.132812 98.304688 C 180.96875 105.847656 179.71875 110.476562 178.46875 115.101562 C 177.996094 116.847656 177.523438 118.59375 177.523438 120.410156 C 177.523438 123.175781 178.660156 125.695312 180.484375 127.523438 C 182.3125 129.351562 184.828125 130.488281 187.59375 130.488281 Z M 187.59375 130.488281 " fill-opacity="1" fill-rule="nonzero"/><path fill="#5271ff" d="M 187.59375 137.6875 C 185.609375 137.6875 183.996094 136.074219 183.996094 134.085938 C 183.996094 132.097656 185.609375 130.488281 187.59375 130.488281 C 190.359375 130.488281 192.878906 129.351562 194.703125 127.523438 C 196.53125 125.695312 197.664062 123.175781 197.664062 120.410156 C 197.664062 118.59375 197.191406 116.847656 196.71875 115.101562 C 195.46875 110.476562 194.21875 105.847656 198.058594 98.304688 C 198.957031 96.535156 201.121094 95.832031 202.890625 96.730469 C 204.660156 97.632812 205.363281 99.796875 204.464844 101.566406 C 201.875 106.652344 202.769531 109.949219 203.660156 113.246094 C 204.257812 115.460938 204.859375 117.675781 204.859375 120.410156 C 204.859375 125.164062 202.917969 129.484375 199.789062 132.613281 C 196.664062 135.742188 192.34375 137.6875 187.59375 137.6875 Z M 187.59375 137.6875 " fill-opacity="1" fill-rule="nonzero"/><g fill="#ffffff" fill-opacity="1"><g transform="translate(115.639883, 259.166292)"><g><path d="M 10.351562 0.238281 C 15.480469 0.238281 19.589844 -3.898438 19.589844 -9 C 19.589844 -14.101562 15.480469 -18.238281 10.351562 -18.238281 C 5.25 -18.238281 1.109375 -14.101562 1.109375 -9 C 1.109375 -3.898438 5.25 0.238281 10.351562 0.238281 Z M 10.351562 -3.628906 C 7.320312 -3.628906 5.011719 -5.96875 5.011719 -9 C 5.011719 -12.03125 7.320312 -14.371094 10.351562 -14.371094 C 13.410156 -14.371094 15.71875 -12.03125 15.71875 -9 C 15.71875 -5.96875 13.410156 -3.628906 10.351562 -3.628906 Z M 10.351562 -3.628906 "/></g></g></g><g fill="#ffffff" fill-opacity="1"><g transform="translate(140.161858, 259.166292)"><g><path d="M 10.351562 0.238281 C 13.921875 0.238281 17.011719 -1.769531 18.539062 -4.710938 L 15.121094 -6.480469 C 14.25 -4.769531 12.480469 -3.628906 10.351562 -3.628906 C 7.320312 -3.628906 5.011719 -5.96875 5.011719 -9 C 5.011719 -12.03125 7.320312 -14.371094 10.351562 -14.371094 C 12.480469 -14.371094 14.25 -13.230469 15.121094 -11.519531 L 18.539062 -13.289062 C 17.011719 -16.230469 13.921875 -18.238281 10.351562 -18.238281 C 5.25 -18.238281 1.109375 -14.101562 1.109375 -9 C 1.109375 -3.898438 5.25 0.238281 10.351562 0.238281 Z M 10.351562 0.238281 "/></g></g></g><g fill="#ffffff" fill-opacity="1"><g transform="translate(163.273841, 259.166292)"><g><path d="M 12.871094 -18 L -0.148438 -18 L -0.148438 -14.488281 L 4.410156 -14.488281 L 4.410156 0 L 8.339844 0 L 8.339844 -14.488281 L 12.871094 -14.488281 Z M 12.871094 -18 "/></g></g></g><g fill="#ffffff" fill-opacity="1"><g transform="translate(179.785833, 259.166292)"><g><path d="M 10.351562 0.238281 C 15.480469 0.238281 19.589844 -3.898438 19.589844 -9 C 19.589844 -14.101562 15.480469 -18.238281 10.351562 -18.238281 C 5.25 -18.238281 1.109375 -14.101562 1.109375 -9 C 1.109375 -3.898438 5.25 0.238281 10.351562 0.238281 Z M 10.351562 -3.628906 C 7.320312 -3.628906 5.011719 -5.96875 5.011719 -9 C 5.011719 -12.03125 7.320312 -14.371094 10.351562 -14.371094 C 13.410156 -14.371094 15.71875 -12.03125 15.71875 -9 C 15.71875 -5.96875 13.410156 -3.628906 10.351562 -3.628906 Z M 10.351562 -3.628906 "/></g></g></g><g fill="#ffffff" fill-opacity="1"><g transform="translate(204.307808, 259.166292)"><g><path d="M 9.421875 -18 L 1.769531 -18 L 1.769531 0 L 5.730469 0 L 5.730469 -7.289062 L 9.421875 -7.289062 C 12.449219 -7.289062 14.789062 -9.539062 14.789062 -12.570312 C 14.789062 -15.570312 12.449219 -18 9.421875 -18 Z M 8.789062 -10.558594 L 5.730469 -10.558594 L 5.730469 -14.519531 L 8.789062 -14.519531 C 10.050781 -14.519531 11.011719 -13.710938 11.011719 -12.539062 C 11.011719 -11.339844 10.050781 -10.558594 8.789062 -10.558594 Z M 8.789062 -10.558594 "/></g></g></g><g fill="#ffffff" fill-opacity="1"><g transform="translate(223.009787, 259.166292)"><g><path d="M 9.148438 0.238281 C 13.410156 0.238281 16.648438 -2.371094 16.648438 -5.761719 L 16.648438 -18 L 12.691406 -18 L 12.691406 -6.511719 C 12.691406 -4.679688 11.160156 -3.269531 9.148438 -3.269531 C 7.171875 -3.269531 5.640625 -4.679688 5.640625 -6.511719 L 5.640625 -18 L 1.679688 -18 L 1.679688 -5.761719 C 1.679688 -2.371094 4.949219 0.238281 9.148438 0.238281 Z M 9.148438 0.238281 "/></g></g></g><g fill="#ffffff" fill-opacity="1"><g transform="translate(245.131765, 259.166292)"><g><path d="M 7.320312 0.238281 C 10.679688 0.238281 13.53125 -1.738281 13.53125 -5.101562 C 13.53125 -11.761719 5.25 -10.109375 5.25 -13.230469 C 5.25 -14.25 6.03125 -14.730469 6.988281 -14.730469 C 8.011719 -14.730469 9.03125 -14.160156 9.929688 -13.171875 L 12.570312 -15.691406 C 11.25 -17.21875 9.238281 -18.238281 7.019531 -18.238281 C 4.171875 -18.238281 1.261719 -16.53125 1.261719 -12.929688 C 1.261719 -6.808594 9.570312 -8.28125 9.570312 -5.128906 C 9.570312 -4.140625 8.730469 -3.480469 7.351562 -3.480469 C 5.699219 -3.480469 4.410156 -4.410156 3.75 -5.820312 L 0.480469 -3.78125 C 1.648438 -1.53125 4.171875 0.238281 7.320312 0.238281 Z M 7.320312 0.238281 "/></g></g></g><g fill="#ffffff" fill-opacity="1"><g transform="translate(161.168387, 278.616311)"><g><path d="M 6.246094 0.140625 C 8.257812 0.140625 10.007812 -0.960938 10.933594 -2.589844 L 9.972656 -3.132812 C 9.253906 -1.835938 7.855469 -0.980469 6.246094 -0.980469 C 3.882812 -0.980469 1.976562 -2.867188 1.976562 -5.25 C 1.976562 -7.628906 3.882812 -9.515625 6.246094 -9.515625 C 7.855469 -9.515625 9.253906 -8.660156 9.972656 -7.363281 L 10.933594 -7.90625 C 10.007812 -9.535156 8.257812 -10.636719 6.246094 -10.636719 C 3.269531 -10.636719 0.855469 -8.222656 0.855469 -5.25 C 0.855469 -2.273438 3.269531 0.140625 6.246094 0.140625 Z M 6.246094 0.140625 "/></g></g></g><g fill="#ffffff" fill-opacity="1"><g transform="translate(176.512915, 278.616311)"><g><path d="M 1.277344 0 L 4.144531 0 C 7.03125 0 9.394531 -2.34375 9.394531 -5.25 C 9.394531 -8.152344 7.03125 -10.496094 4.144531 -10.496094 L 1.277344 -10.496094 Z M 2.378906 -1.121094 L 2.378906 -9.375 L 4.128906 -9.375 C 6.457031 -9.375 8.273438 -7.609375 8.273438 -5.25 C 8.273438 -2.886719 6.457031 -1.121094 4.128906 -1.121094 Z M 2.378906 -1.121094 "/></g></g></g><g fill="#ffffff" fill-opacity="1"><g transform="translate(190.598147, 278.616311)"><g><path d="M 1.277344 0 L 4.144531 0 C 7.03125 0 9.394531 -2.34375 9.394531 -5.25 C 9.394531 -8.152344 7.03125 -10.496094 4.144531 -10.496094 L 1.277344 -10.496094 Z M 2.378906 -1.121094 L 2.378906 -9.375 L 4.128906 -9.375 C 6.457031 -9.375 8.273438 -7.609375 8.273438 -5.25 C 8.273438 -2.886719 6.457031 -1.121094 4.128906 -1.121094 Z M 2.378906 -1.121094 "/></g></g></g><g fill="#ffffff" fill-opacity="1"><g transform="translate(204.683377, 278.616311)"><g><path d="M 6.457031 -5.316406 C 7.382812 -5.738281 7.996094 -6.578125 7.996094 -7.695312 C 7.996094 -9.339844 6.699219 -10.496094 5.089844 -10.496094 L 1.277344 -10.496094 L 1.277344 0 L 5.457031 0 C 7.050781 0 8.328125 -1.136719 8.328125 -2.765625 C 8.328125 -4.042969 7.558594 -4.949219 6.457031 -5.316406 Z M 6.875 -7.609375 C 6.875 -6.578125 6.019531 -5.789062 4.96875 -5.789062 L 2.378906 -5.789062 L 2.378906 -9.375 L 4.96875 -9.375 C 6.019531 -9.375 6.875 -8.640625 6.875 -7.609375 Z M 5.316406 -1.121094 L 2.378906 -1.121094 L 2.378906 -4.707031 L 5.316406 -4.707031 C 6.351562 -4.707031 7.207031 -3.917969 7.207031 -2.886719 C 7.207031 -1.855469 6.351562 -1.121094 5.316406 -1.121094 Z M 5.316406 -1.121094 "/></g></g></g></svg>